<svg width="32" height="32" viewBox="0 0 32 32" fill="none" xmlns="http://www.w3.org/2000/svg">
<path d="M16 16C18.0886 16 20.0916 15.1703 21.5685 13.6935C23.0453 12.2166 23.875 10.2136 23.875 8.125C23.875 6.03642 23.0453 4.03338 21.5685 2.55653C20.0916 1.07969 18.0886 0.25 16 0.25C13.9114 0.25 11.9084 1.07969 10.4315 2.55653C8.95469 4.03338 8.125 6.03642 8.125 8.125C8.125 10.2136 8.95469 12.2166 10.4315 13.6935C11.9084 15.1703 13.9114 16 16 16ZM21.25 8.125C21.25 9.51739 20.6969 10.8527 19.7123 11.8373C18.7277 12.8219 17.3924 13.375 16 13.375C14.6076 13.375 13.2723 12.8219 12.2877 11.8373C11.3031 10.8527 10.75 9.51739 10.75 8.125C10.75 6.73261 11.3031 5.39725 12.2877 4.41269C13.2723 3.42812 14.6076 2.875 16 2.875C17.3924 2.875 18.7277 3.42812 19.7123 4.41269C20.6969 5.39725 21.25 6.73261 21.25 8.125ZM31.75 29.125C31.75 31.75 29.125 31.75 29.125 31.75H2.875C2.875 31.75 0.25 31.75 0.25 29.125C0.25 26.5 2.875 18.625 16 18.625C29.125 18.625 31.75 26.5 31.75 29.125ZM29.125 29.1145C29.1224 28.4688 28.7208 26.5262 26.941 24.7465C25.2295 23.035 22.0086 21.25 16 21.25C9.98875 21.25 6.7705 23.035 5.059 24.7465C3.27925 26.5262 2.88025 28.4688 2.875 29.1145H29.125Z" fill="white"/>
</svg>
